<svg width="404" height="365" viewBox="0 0 404 365" fill="none" xmlns="http://www.w3.org/2000/svg">
<path d="M83.991 359.376L80.5223 356.43L84.4511 344.38L84.2952 344.248L73.0394 350.074L69.5708 347.127L80.8708 333.824L83.599 336.142L76.244 344.8L76.3544 344.894L87.0969 339.225L88.9546 340.803L85.0699 352.353L85.1803 352.447L92.5629 343.756L95.2911 346.073L83.991 359.376Z" fill="white"/>
<path d="M68.347 320.592C68.8895 321.227 69.2628 321.887 69.4668 322.572C69.6666 323.261 69.6719 323.937 69.4828 324.599C69.2857 325.26 68.8588 325.871 68.2021 326.432C67.6491 326.905 67.0979 327.2 66.5486 327.318C65.9993 327.436 65.4607 327.418 64.9328 327.263C64.4049 327.109 63.8926 326.859 63.3959 326.514C62.8954 326.164 62.4111 325.763 61.9429 325.311C61.3879 324.784 60.9332 324.366 60.5787 324.056C60.22 323.749 59.9183 323.562 59.6738 323.495C59.4292 323.427 59.2011 323.484 58.9894 323.665L58.9505 323.698C58.5401 324.048 58.3333 324.449 58.33 324.9C58.3231 325.347 58.5208 325.806 58.923 326.277C59.3474 326.774 59.7952 327.075 60.2665 327.181C60.7334 327.29 61.1717 327.252 61.5812 327.066L63.5548 329.797C62.8392 330.184 62.0988 330.375 61.3333 330.372C60.5636 330.372 59.8035 330.173 59.0529 329.775C58.2943 329.377 57.5755 328.78 56.8965 327.985C56.4242 327.432 56.0369 326.848 55.7347 326.232C55.4289 325.611 55.2442 324.988 55.1805 324.362C55.1132 323.733 55.1956 323.12 55.4277 322.526C55.6555 321.935 56.0654 321.387 56.6572 320.882L63.371 315.147L65.6073 317.765L64.227 318.944L64.2934 319.022C64.741 318.916 65.198 318.896 65.6644 318.961C66.1265 319.029 66.585 319.194 67.04 319.456C67.4907 319.721 67.9264 320.1 68.347 320.592ZM65.7665 321.429C65.4196 321.023 65.0334 320.733 64.6078 320.558C64.178 320.387 63.7491 320.331 63.3213 320.39C62.8935 320.449 62.5046 320.628 62.1547 320.927L61.0984 321.83C61.2284 321.868 61.3817 321.943 61.5584 322.053C61.727 322.163 61.9102 322.294 62.1077 322.447C62.301 322.603 62.4921 322.761 62.681 322.921C62.8656 323.085 63.0333 323.233 63.184 323.366C63.5083 323.649 63.8256 323.868 64.136 324.021C64.4463 324.174 64.7473 324.242 65.0388 324.225C65.326 324.211 65.5992 324.094 65.8584 323.872C66.2343 323.551 66.4054 323.17 66.3716 322.728C66.3298 322.285 66.1281 321.852 65.7665 321.429Z" fill="white"/>
<path d="M59.8114 302.629L44.6381 312.312L42.7124 309.295L44.566 308.112L44.4788 307.975C44.0963 308.031 43.6708 308.029 43.2022 307.971C42.7259 307.911 42.2532 307.741 41.7844 307.46C41.3078 307.178 40.8723 306.728 40.478 306.11C39.9644 305.306 39.7014 304.429 39.6888 303.48C39.6715 302.534 39.9544 301.588 40.5375 300.643C41.1159 299.701 42.0373 298.826 43.3017 298.02C44.5327 297.234 45.6989 296.769 46.8003 296.626C47.8939 296.481 48.8757 296.609 49.7456 297.011C50.6076 297.411 51.3061 298.031 51.841 298.869C52.22 299.463 52.4443 300.031 52.5139 300.573C52.5804 301.11 52.5492 301.605 52.4204 302.058C52.2867 302.514 52.111 302.909 51.8931 303.244L51.9527 303.337L57.8582 299.568L59.8114 302.629ZM48.2437 305.795C48.8999 305.376 49.4142 304.92 49.7866 304.426C50.1589 303.932 50.3716 303.426 50.4245 302.907C50.4727 302.391 50.3393 301.886 50.0245 301.393C49.7066 300.895 49.3011 300.56 48.808 300.39C48.3101 300.222 47.7604 300.206 47.1588 300.34C46.5493 300.473 45.9236 300.744 45.2818 301.154C44.6448 301.56 44.141 302.007 43.7703 302.493C43.3997 302.979 43.1879 303.481 43.135 304C43.0821 304.519 43.2161 305.03 43.537 305.533C43.8549 306.031 44.2556 306.369 44.7391 306.545C45.2196 306.717 45.7597 306.74 46.3596 306.613C46.9595 306.486 47.5876 306.214 48.2437 305.795Z" fill="white"/>
<path d="M36.4496 281.731L26.943 280.866L25.4649 277.606L37.3876 272.2L38.8165 275.352L31.2328 278.79L40.7556 279.629L42.2443 282.912L30.3215 288.318L28.8892 285.158L36.4496 281.731Z" fill="white"/>
<path d="M27.002 258.051L17.7067 255.878L16.6941 252.445L29.2504 248.742L30.2292 252.061L22.2426 254.416L31.5576 256.565L32.5773 260.023L20.0211 263.726L19.0399 260.399L27.002 258.051ZM13.5011 257.767L12.785 255.34C13.7785 255.052 14.6854 255.185 15.5057 255.737C16.3244 256.283 16.9161 257.175 17.281 258.412C17.6474 259.655 17.6351 260.727 17.2439 261.631C16.8527 262.534 16.1612 263.132 15.1694 263.424L14.4582 261.013C14.8358 260.907 15.1383 260.688 15.3657 260.354C15.5915 260.015 15.6169 259.548 15.4417 258.954C15.2713 258.377 15.002 258.006 14.6338 257.842C14.2656 257.678 13.888 257.653 13.5011 257.767Z" fill="white"/>
<path d="M25.5535 230.129C25.7511 231.455 25.6401 232.637 25.2205 233.677C24.7944 234.711 24.1165 235.559 23.1867 236.22C22.2561 236.876 21.1361 237.301 19.8267 237.496C18.5004 237.694 17.299 237.611 16.2225 237.249C15.1396 236.882 14.2463 236.265 13.5429 235.399C12.8338 234.534 12.3817 233.447 12.1866 232.137C12.0183 231.008 12.076 229.988 12.3599 229.078C12.6437 228.169 13.1196 227.411 13.7878 226.806C14.4559 226.201 15.2864 225.799 16.2791 225.599L16.784 228.988C16.152 229.18 15.6698 229.51 15.3376 229.979C14.9989 230.443 14.8785 231.004 14.9764 231.661C15.0593 232.218 15.2835 232.681 15.6489 233.052C16.0079 233.418 16.4911 233.673 17.0987 233.818C17.7062 233.963 18.4174 233.975 19.2323 233.854C20.0584 233.73 20.7442 233.513 21.2895 233.202C21.834 232.886 22.227 232.497 22.4685 232.036C22.71 231.575 22.7893 231.066 22.7065 230.51C22.6453 230.099 22.5062 229.744 22.289 229.443C22.071 229.137 21.786 228.9 21.4338 228.735C21.0752 228.564 20.6633 228.479 20.1981 228.479L19.6932 225.091C20.6906 224.999 21.6019 225.139 22.4269 225.51C23.2455 225.877 23.9284 226.45 24.4755 227.23C25.0225 228.01 25.3819 228.976 25.5535 230.129Z" fill="white"/>
<path d="M23.1522 211.354L10.0618 211.472L10.0291 207.842L15.1084 207.796L15.0992 206.773L9.98772 203.257L9.9493 198.995L16.4851 203.564L23.0392 198.826L23.0781 203.139L18.4625 206.41L18.4747 207.765L23.1194 207.724L23.1522 211.354Z" fill="white"/>
<path d="M19.2753 182.451L11.6544 176.703L12.118 173.154L25.0986 174.849L24.6505 178.28L16.3939 177.202L24.0424 182.936L23.5755 186.511L10.5948 184.816L11.044 181.376L19.2753 182.451Z" fill="white"/>
<path d="M23.7371 157.35L16.9854 150.602L17.9359 147.151L30.5569 150.627L29.6381 153.963L21.6103 151.752L28.3912 158.49L27.4339 161.966L14.8129 158.49L15.734 155.146L23.7371 157.35ZM12.416 149.989L13.0882 147.548C14.0836 147.829 14.7843 148.419 15.1902 149.321C15.5976 150.217 15.63 151.287 15.2875 152.53C14.9436 153.779 14.3672 154.684 13.5585 155.245C12.7498 155.806 11.847 155.949 10.85 155.675L11.5176 153.251C11.8941 153.361 12.2669 153.334 12.6361 153.17C13.0068 153.001 13.2743 152.618 13.4388 152.021C13.5987 151.44 13.5655 150.983 13.339 150.65C13.1126 150.316 12.805 150.096 12.416 149.989Z" fill="white"/>
<path d="M32.5019 111.712L35.0428 113.014L32.5627 117.853L41.6718 122.522L40.0625 125.662L28.4126 119.691L32.5019 111.712Z" fill="white"/>
<path d="M53.6903 102.339C52.9405 103.43 52.0603 104.215 51.0497 104.692C50.0376 105.162 48.9667 105.325 47.8371 105.183C46.7029 105.038 45.5832 104.586 44.4781 103.826C43.3636 103.061 42.5376 102.176 42.0001 101.172C41.458 100.165 41.227 99.1071 41.3072 97.9971C41.386 96.8792 41.8003 95.7748 42.5501 94.6837C43.2998 93.5926 44.1808 92.8123 45.1929 92.3427C46.2035 91.8652 47.276 91.6991 48.4102 91.8443C49.5398 91.9862 50.6618 92.4402 51.7763 93.206C52.8815 93.9655 53.7051 94.8486 54.2473 95.8554C54.7847 96.859 55.0141 97.9197 54.9353 99.0376C54.8551 100.148 54.4401 101.248 53.6903 102.339ZM51.382 100.732C51.7231 100.236 51.8674 99.7249 51.8149 99.1993C51.7577 98.6706 51.5412 98.153 51.1654 97.6465C50.7928 97.1354 50.2927 96.6642 49.6652 96.233C49.0377 95.8018 48.4186 95.5039 47.8079 95.3392C47.2003 95.1699 46.6395 95.1534 46.1254 95.2896C45.6113 95.4257 45.1836 95.742 44.8425 96.2384C44.4982 96.7394 44.3514 97.259 44.4022 97.7972C44.4561 98.3306 44.6694 98.8529 45.042 99.3641C45.4179 99.8705 45.9196 100.339 46.547 100.771C47.1745 101.202 47.792 101.502 48.3996 101.671C49.0103 101.836 49.5744 101.848 50.0917 101.707C50.6076 101.558 51.0377 101.233 51.382 100.732Z" fill="white"/>
<path d="M68.9115 82.7736C68.0063 83.763 67.0182 84.4222 65.947 84.7514C64.8754 85.0725 63.7899 85.0805 62.6905 84.7755C61.595 84.4663 60.5588 83.8649 59.582 82.9713C58.5927 82.0662 57.8994 81.0816 57.5022 80.0174C57.1047 78.9452 57.0203 77.8631 57.2493 76.7711C57.474 75.6753 58.0332 74.639 58.9268 73.6622C59.6977 72.8196 60.5257 72.2218 61.4108 71.8687C62.296 71.5157 63.184 71.4078 64.0748 71.5452C64.9657 71.6825 65.8015 72.0736 66.5822 72.7186L64.2696 75.2464C63.7223 74.8767 63.1619 74.7106 62.5885 74.7481C62.0147 74.7777 61.5035 75.0377 61.0548 75.5281C60.6751 75.9432 60.4565 76.4093 60.3991 76.9267C60.3413 77.436 60.4476 77.9721 60.7179 78.5352C60.9883 79.0983 61.4274 79.6579 62.0353 80.214C62.6515 80.7777 63.2522 81.1733 63.8374 81.4006C64.4265 81.6238 64.9761 81.6838 65.4863 81.5807C65.9965 81.4776 66.4414 81.2185 66.8211 80.8035C67.101 80.4974 67.2894 80.1653 67.386 79.8071C67.4866 79.4447 67.4902 79.0746 67.397 78.6967C67.3034 78.3107 67.1099 77.9373 66.8163 77.5763L69.129 75.0485C69.8284 75.7654 70.2941 76.5611 70.526 77.4355C70.7576 78.3019 70.743 79.1934 70.4821 80.1098C70.2212 81.0263 69.6977 81.9142 68.9115 82.7736Z" fill="white"/>
<path d="M86.8294 71.4307C86.4747 71.724 86.1184 71.9707 85.7604 72.1708C85.4105 72.3718 85.1004 72.5139 84.8302 72.5973L83.7335 69.9872C84.1452 69.8164 84.486 69.6267 84.756 69.4182C85.0303 69.2061 85.2095 68.9547 85.2936 68.664C85.382 68.3697 85.3571 68.0143 85.219 67.5976L85.0302 67.0349L72.8298 59.6502L75.7723 57.217L83.9874 62.8985L84.0925 62.8116L80.0743 53.6595L83.0364 51.21L88.3594 65.6311C88.6201 66.3298 88.755 67.0145 88.7641 67.6852C88.7812 68.3568 88.6351 69.0048 88.3257 69.6293C88.02 70.2581 87.5212 70.8586 86.8294 71.4307Z" fill="white"/>
<path d="M102.622 57.4992L99.1401 51.7566L100 51.2352C100.154 50.9294 100.202 50.5609 100.147 50.1295C100.096 49.6951 99.9793 49.2177 99.7966 48.6972C99.6188 48.1738 99.3945 47.6287 99.1239 47.0619C98.8552 46.4873 98.5762 45.9122 98.287 45.3367L96.3601 41.5016L104.945 36.2958L110.239 45.0262L111.973 43.9744L115.456 49.7169L112.497 51.5111L110.508 48.2318L103.665 52.3814L105.654 55.6608L102.622 57.4992ZM103.09 49.3614L107.309 46.8027L103.465 40.4626L100.448 42.2921L101.1 43.6309C101.742 44.8761 102.239 45.9637 102.59 46.8936C102.938 47.8186 103.105 48.6412 103.09 49.3614Z" fill="white"/>
<path d="M128.789 38.981C128.021 39.3083 127.279 39.4668 126.565 39.4563C125.848 39.4406 125.202 39.2434 124.627 38.8647C124.054 38.4785 123.599 37.8881 123.261 37.0936C122.975 36.4245 122.859 35.8103 122.911 35.2508C122.963 34.6914 123.141 34.183 123.447 33.7255C123.752 33.2681 124.144 32.8541 124.622 32.4836C125.106 32.1109 125.633 31.7688 126.205 31.4574C126.874 31.0858 127.409 30.7773 127.811 30.532C128.211 30.2814 128.48 30.0496 128.617 29.8365C128.755 29.6234 128.769 29.3888 128.66 29.1327L128.64 29.0856C128.429 28.5891 128.108 28.2717 127.679 28.1335C127.255 27.9931 126.758 28.0442 126.188 28.287C125.587 28.5431 125.165 28.8802 124.923 29.2982C124.679 29.711 124.584 30.1405 124.639 30.5868L121.442 31.6521C121.287 30.8535 121.326 30.0896 121.559 29.3604C121.79 28.626 122.207 27.9603 122.811 27.3633C123.418 26.7588 124.203 26.2516 125.165 25.8418C125.834 25.5568 126.507 25.3624 127.186 25.2586C127.869 25.1526 128.519 25.163 129.135 25.2896C129.756 25.414 130.316 25.676 130.813 26.0754C131.309 26.4696 131.709 27.0248 132.014 27.7409L135.475 35.864L132.307 37.2136L131.595 35.5435L131.501 35.5836C131.468 36.0423 131.351 36.4845 131.149 36.9101C130.946 37.3304 130.651 37.7185 130.265 38.0743C129.877 38.4248 129.385 38.7271 128.789 38.981ZM128.764 36.2682C129.255 36.0589 129.648 35.7773 129.942 35.4236C130.233 35.0646 130.415 34.6722 130.487 34.2463C130.559 33.8205 130.504 33.3959 130.324 32.9725L129.78 31.6944C129.704 31.8069 129.587 31.9309 129.428 32.0663C129.273 32.1943 129.093 32.3297 128.888 32.4725C128.681 32.6101 128.473 32.7451 128.264 32.8774C128.053 33.0046 127.861 33.1202 127.689 33.2242C127.322 33.4488 127.018 33.6861 126.779 33.9363C126.54 34.1865 126.385 34.4532 126.314 34.7366C126.241 35.0147 126.271 35.3106 126.405 35.6242C126.599 36.079 126.911 36.3564 127.343 36.4566C127.778 36.5493 128.252 36.4865 128.764 36.2682Z" fill="white"/>
<path d="M148.485 36.2168L143.79 18.8399L147.245 17.9062L147.819 20.029L147.975 19.9867C148.037 19.6051 148.166 19.1996 148.362 18.77C148.561 18.3334 148.865 17.9335 149.273 17.5702C149.685 17.1999 150.245 16.9192 150.953 16.728C151.874 16.479 152.79 16.4906 153.699 16.7629C154.607 17.0297 155.424 17.5827 156.151 18.4222C156.877 19.2561 157.435 20.3971 157.827 21.8452C158.207 23.2549 158.301 24.5066 158.108 25.6005C157.919 26.6874 157.503 27.5857 156.859 28.2953C156.219 28.9979 155.419 29.4789 154.459 29.7382C153.779 29.922 153.17 29.9659 152.632 29.8699C152.099 29.7725 151.636 29.5945 151.243 29.3359C150.848 29.0719 150.523 28.7858 150.269 28.4777L150.162 28.5066L151.99 35.2698L148.485 36.2168ZM148.928 24.2318C149.131 24.9832 149.412 25.6105 149.772 26.1137C150.132 26.6169 150.551 26.9714 151.03 27.1774C151.508 27.3779 152.03 27.4018 152.595 27.2491C153.165 27.095 153.606 26.8083 153.916 26.3889C154.225 25.9641 154.405 25.4445 154.457 24.8302C154.513 24.2089 154.442 23.5307 154.243 22.7957C154.046 22.0662 153.771 21.4518 153.418 20.9527C153.066 20.4535 152.65 20.101 152.17 19.895C151.691 19.6891 151.163 19.6639 150.587 19.8195C150.017 19.9736 149.575 20.2549 149.262 20.6633C148.954 21.0702 148.77 21.5788 148.712 22.1891C148.653 22.7994 148.725 23.4803 148.928 24.2318Z" fill="white"/>
<path d="M178.459 24.8974C177.128 25.06 175.949 24.9178 174.921 24.4709C173.899 24.0177 173.069 23.3176 172.433 22.3708C171.802 21.4232 171.406 20.2924 171.246 18.9783C171.083 17.6473 171.197 16.4485 171.588 15.3819C171.983 14.309 172.623 13.4323 173.507 12.7519C174.391 12.0659 175.49 11.6426 176.804 11.4821C177.938 11.3437 178.955 11.4283 179.857 11.736C180.759 12.0437 181.504 12.5395 182.091 13.2234C182.678 13.9072 183.059 14.748 183.232 15.7457L179.831 16.161C179.656 15.5242 179.338 15.0335 178.878 14.689C178.423 14.3381 177.866 14.203 177.206 14.2836C176.648 14.3518 176.179 14.5636 175.798 14.9191C175.423 15.2683 175.155 15.7447 174.994 16.3482C174.833 16.9517 174.803 17.6624 174.902 18.4802C175.004 19.3092 175.203 20.0004 175.499 20.5538C175.801 21.1065 176.18 21.5096 176.634 21.7632C177.089 22.0168 177.595 22.1095 178.154 22.0413C178.565 21.991 178.924 21.8613 179.231 21.6521C179.543 21.4423 179.787 21.1636 179.962 20.8159C180.142 20.4619 180.238 20.0524 180.249 19.5873L183.65 19.172C183.715 20.1715 183.551 21.0787 183.158 21.8937C182.771 22.7024 182.18 23.3698 181.385 23.8962C180.591 24.4225 179.616 24.7562 178.459 24.8974Z" fill="white"/>
<path d="M196.744 12.7736L196.784 9.91879L208.646 10.0835L208.606 12.9384L204.388 12.8798L204.246 23.1146L200.786 23.0666L200.928 12.8317L196.744 12.7736Z" fill="white"/>
<path d="M220.867 23.9594L222.77 11.0074L228.293 11.8186C229.889 12.0531 231.107 12.542 231.945 13.2853C232.784 14.0287 233.121 14.9597 232.956 16.0784C232.853 16.7811 232.506 17.3273 231.915 17.7171C231.323 18.1069 230.552 18.3152 229.6 18.342C230.368 18.5122 231.002 18.7863 231.504 19.1643C232.012 19.5375 232.375 19.9785 232.593 20.4872C232.817 20.9967 232.887 21.5353 232.804 22.1031C232.696 22.8395 232.406 23.4431 231.935 23.9137C231.469 24.3851 230.839 24.7061 230.045 24.8765C229.256 25.0478 228.322 25.0542 227.242 24.8956L220.867 23.9594ZM224.61 21.7611L227.637 22.2057C228.138 22.2792 228.546 22.2186 228.861 22.0237C229.184 21.8241 229.375 21.5163 229.436 21.1003C229.504 20.6394 229.414 20.2557 229.166 19.9494C228.924 19.6439 228.553 19.4544 228.052 19.3809L225.025 18.9363L224.61 21.7611ZM225.335 16.8283L227.586 17.1589C227.946 17.2118 228.26 17.2062 228.527 17.1421C228.802 17.0733 229.021 16.9504 229.185 16.7735C229.354 16.5974 229.459 16.3744 229.498 16.1046C229.557 15.7054 229.442 15.3699 229.155 15.098C228.868 14.8261 228.446 14.6493 227.889 14.5675L225.714 14.248L225.335 16.8283Z" fill="white"/>
<path d="M249.797 29.8737C248.503 29.5 247.465 28.9162 246.683 28.1226C245.908 27.325 245.409 26.3706 245.186 25.2593C244.964 24.1426 245.045 22.921 245.429 21.5946C245.802 20.3009 246.381 19.2381 247.166 18.4061C247.95 17.5741 248.877 17.0168 249.947 16.7343C251.021 16.4534 252.175 16.4911 253.409 16.8475C254.239 17.0872 254.973 17.4441 255.61 17.9181C256.255 18.3883 256.769 18.9654 257.151 19.6494C257.538 20.335 257.766 21.1224 257.834 22.0116C257.904 22.8953 257.785 23.872 257.476 24.9419L257.199 25.8999L246.579 22.8319L247.204 20.6703L254.54 22.7898C254.685 22.2876 254.704 21.8111 254.598 21.3605C254.492 20.9099 254.276 20.5194 253.952 20.1891C253.634 19.8549 253.222 19.6145 252.714 19.4678C252.185 19.3148 251.68 19.302 251.199 19.4294C250.726 19.5529 250.316 19.7862 249.968 20.1294C249.622 20.4671 249.375 20.8835 249.226 21.3787L248.632 23.4338C248.452 24.0561 248.412 24.6269 248.51 25.1462C248.614 25.667 248.843 26.1118 249.198 26.4804C249.553 26.8491 250.022 27.1178 250.606 27.2865C250.994 27.3985 251.364 27.4464 251.718 27.4303C252.072 27.4141 252.394 27.33 252.687 27.1779C252.979 27.0258 253.231 26.8088 253.443 26.5269L256.607 27.6718C256.219 28.3996 255.688 28.9795 255.013 29.4114C254.346 29.8395 253.567 30.0994 252.677 30.1912C251.794 30.2792 250.834 30.1733 249.797 29.8737Z" fill="white"/>
<path d="M279.398 31.9048L278.233 34.5116L271.993 31.7237L273.157 29.1168L279.398 31.9048ZM276.325 24.9501L270.986 36.9026L267.819 35.4878L273.158 23.5353L276.325 24.9501ZM283.554 28.1795L278.215 40.132L275.071 38.7276L280.411 26.7751L283.554 28.1795Z" fill="white"/>
<path d="M302.196 44.2641L300.682 46.6846L294.888 43.0595L296.402 40.639L302.196 44.2641ZM300.116 36.9511L293.174 48.0493L290.233 46.2096L297.176 35.1114L300.116 36.9511ZM306.829 41.1501L299.886 52.2484L296.967 50.4223L303.91 39.3241L306.829 41.1501Z" fill="white"/>
<path d="M318.742 54.4768L321.695 57.0423C323.004 58.1788 323.752 59.3787 323.942 60.6421C324.135 61.9013 323.779 63.052 322.873 64.0943C322.285 64.772 321.602 65.2248 320.824 65.4526C320.051 65.6761 319.228 65.6614 318.356 65.4085C317.488 65.1513 316.619 64.6445 315.748 63.8881L311.077 59.8303L319.662 49.9476L322.281 52.2224L315.568 59.9497L317.621 61.7327C318.08 62.1314 318.558 62.3435 319.055 62.369C319.552 62.3944 319.959 62.2289 320.277 61.8723C320.604 61.4868 320.724 61.0454 320.637 60.5481C320.553 60.0465 320.282 59.5964 319.823 59.1977L316.87 56.6322L318.742 54.4768ZM320.973 68.4266L329.558 58.5439L332.299 60.925L323.714 70.8076L320.973 68.4266Z" fill="white"/>
<path d="M339.743 80.4653L349.129 78.729L351.433 81.4684L341.415 89.8947L339.188 87.2466L345.56 81.8869L336.165 83.6528L333.844 80.8938L343.863 72.4674L346.096 75.1221L339.743 80.4653ZM352.225 75.3124L353.854 77.2495C353.059 77.9108 352.175 78.1531 351.202 77.9764C350.233 77.804 349.334 77.2243 348.504 76.2372C347.67 75.2458 347.251 74.258 347.247 73.2737C347.243 72.2894 347.637 71.4645 348.429 70.7989L350.047 72.723C349.743 72.971 349.554 73.2934 349.48 73.6902C349.409 74.0914 349.572 74.529 349.971 75.0029C350.359 75.4638 350.754 75.6956 351.157 75.6981C351.56 75.7006 351.916 75.572 352.225 75.3124Z" fill="white"/>
<path d="M353.362 116.131C353.148 115.724 352.98 115.324 352.858 114.933C352.733 114.549 352.658 114.216 352.631 113.935L355.411 113.398C355.494 113.836 355.609 114.208 355.758 114.515C355.909 114.828 356.118 115.055 356.386 115.196C356.655 115.343 357.008 115.392 357.445 115.343L358.034 115.273L367.768 104.851L369.545 108.23L362.296 115.103L362.36 115.223L372.142 113.171L373.931 116.573L358.724 118.82C357.987 118.932 357.289 118.923 356.63 118.794C355.97 118.673 355.366 118.397 354.818 117.966C354.265 117.537 353.78 116.926 353.362 116.131Z" fill="white"/>
<path d="M378.255 140.018L375.569 140.984L373.256 134.551L375.943 133.585L378.255 140.018ZM381.142 132.984L368.824 137.413L367.65 134.149L379.969 129.72L381.142 132.984ZM383.821 140.435L371.502 144.864L370.337 141.624L382.656 137.195L383.821 140.435Z" fill="white"/>
<path d="M380.843 160.155L389.933 163.069L390.666 166.572L377.853 169.253L377.144 165.866L385.295 164.161L376.183 161.27L375.444 157.741L388.258 155.06L388.968 158.455L380.843 160.155Z" fill="white"/>
<path d="M379.871 182.18L392.929 181.254L393.324 186.822C393.439 188.432 393.223 189.726 392.677 190.704C392.131 191.683 391.295 192.212 390.167 192.292C389.458 192.343 388.85 192.121 388.342 191.627C387.835 191.133 387.465 190.425 387.235 189.501C387.233 190.287 387.102 190.966 386.841 191.537C386.585 192.113 386.233 192.563 385.783 192.885C385.333 193.213 384.823 193.398 384.25 193.438C383.508 193.491 382.856 193.338 382.295 192.979C381.735 192.626 381.286 192.079 380.948 191.34C380.612 190.606 380.405 189.695 380.327 188.607L379.871 182.18ZM382.823 185.363L383.039 188.415C383.075 188.919 383.222 189.305 383.48 189.571C383.744 189.843 384.086 189.964 384.506 189.934C384.97 189.901 385.326 189.731 385.571 189.423C385.818 189.121 385.923 188.717 385.887 188.213L385.671 185.161L382.823 185.363ZM387.796 185.01L387.957 187.28C387.983 187.643 388.056 187.948 388.176 188.196C388.302 188.449 388.469 188.636 388.677 188.758C388.886 188.886 389.126 188.94 389.398 188.921C389.8 188.892 390.103 188.708 390.307 188.369C390.511 188.03 390.593 187.58 390.553 187.019L390.397 184.825L387.796 185.01Z" fill="white"/>
<path d="M380.314 211.705C380.401 210.361 380.748 209.222 381.355 208.287C381.968 207.359 382.792 206.666 383.83 206.21C384.873 205.753 386.083 205.57 387.461 205.659C388.805 205.746 389.967 206.083 390.948 206.67C391.929 207.257 392.673 208.043 393.179 209.026C393.684 210.015 393.895 211.151 393.813 212.432C393.757 213.294 393.566 214.087 393.24 214.812C392.92 215.543 392.466 216.168 391.88 216.689C391.294 217.214 390.574 217.606 389.721 217.864C388.873 218.122 387.893 218.216 386.782 218.144L385.787 218.079L386.5 207.049L388.745 207.194L388.252 214.814C388.774 214.848 389.243 214.764 389.661 214.564C390.078 214.363 390.413 214.068 390.666 213.681C390.924 213.299 391.07 212.844 391.104 212.317C391.14 211.767 391.044 211.271 390.816 210.829C390.594 210.394 390.278 210.043 389.868 209.777C389.464 209.512 389.004 209.36 388.488 209.321L386.353 209.183C385.707 209.141 385.141 209.224 384.655 209.432C384.168 209.645 383.783 209.965 383.5 210.39C383.216 210.816 383.054 211.332 383.015 211.939C382.989 212.342 383.022 212.714 383.114 213.056C383.205 213.397 383.357 213.695 383.568 213.948C383.78 214.2 384.046 214.4 384.367 214.546L383.929 217.882C383.135 217.66 382.454 217.266 381.887 216.7C381.326 216.14 380.904 215.435 380.623 214.586C380.348 213.742 380.245 212.782 380.314 211.705Z" fill="white"/>
<path d="M373.928 229.516L391.544 233.214L390.808 236.717L388.656 236.265L388.623 236.424C388.935 236.652 389.238 236.951 389.532 237.32C389.83 237.696 390.049 238.149 390.188 238.677C390.331 239.212 390.327 239.838 390.176 240.556C389.98 241.49 389.555 242.3 388.9 242.987C388.25 243.675 387.386 244.153 386.309 244.42C385.236 244.688 383.966 244.669 382.498 244.36C381.069 244.06 379.911 243.576 379.023 242.908C378.14 242.247 377.529 241.468 377.189 240.572C376.853 239.683 376.787 238.752 376.991 237.779C377.136 237.089 377.373 236.527 377.703 236.091C378.031 235.66 378.4 235.329 378.809 235.095C379.223 234.863 379.625 234.703 380.015 234.617L380.038 234.508L373.182 233.069L373.928 229.516ZM384.408 235.347C383.646 235.187 382.959 235.154 382.348 235.246C381.736 235.338 381.23 235.551 380.829 235.885C380.433 236.22 380.175 236.674 380.055 237.246C379.934 237.825 379.99 238.347 380.222 238.814C380.461 239.282 380.842 239.679 381.366 240.004C381.895 240.335 382.531 240.579 383.276 240.736C384.016 240.891 384.688 240.925 385.293 240.837C385.898 240.749 386.401 240.538 386.802 240.204C387.203 239.87 387.464 239.412 387.587 238.828C387.708 238.249 387.658 237.728 387.436 237.263C387.214 236.804 386.843 236.41 386.326 236.081C385.809 235.752 385.169 235.507 384.408 235.347Z" fill="white"/>
<path d="M370.419 261.364C370.877 260.104 371.539 259.118 372.404 258.404C373.271 257.699 374.272 257.277 375.404 257.139C376.535 257.007 377.722 257.167 378.966 257.62C380.226 258.079 381.243 258.724 382.016 259.556C382.793 260.395 383.284 261.363 383.489 262.46C383.7 263.559 383.578 264.73 383.125 265.974C382.734 267.047 382.197 267.916 381.514 268.58C380.831 269.244 380.051 269.683 379.175 269.896C378.299 270.109 377.378 270.067 376.41 269.769L377.582 266.549C378.229 266.682 378.811 266.622 379.326 266.368C379.845 266.122 380.219 265.686 380.446 265.062C380.639 264.533 380.663 264.019 380.518 263.519C380.377 263.026 380.074 262.571 379.61 262.154C379.145 261.737 378.525 261.387 377.751 261.105C376.966 260.819 376.26 260.683 375.632 260.696C375.003 260.715 374.472 260.869 374.04 261.159C373.608 261.449 373.295 261.859 373.103 262.387C372.961 262.777 372.913 263.156 372.961 263.524C373.006 263.897 373.144 264.24 373.375 264.554C373.608 264.875 373.93 265.146 374.339 265.368L373.166 268.587C372.246 268.192 371.512 267.634 370.964 266.914C370.419 266.202 370.092 265.372 369.984 264.426C369.875 263.479 370.02 262.459 370.419 261.364Z" fill="white"/>
<path d="M366.178 284.321L371.299 292.377L369.62 295.538L358.058 289.398L359.681 286.342L367.035 290.248L361.884 282.195L363.575 279.011L375.136 285.151L373.51 288.214L366.178 284.321Z" fill="white"/>
<path d="M360.044 306.047L362.362 307.714L355.434 317.345L353.116 315.678L355.58 312.253L347.271 306.276L349.291 303.467L357.601 309.444L360.044 306.047Z" fill="white"/>
<path d="M332.783 323.594C333.71 322.617 334.706 321.964 335.77 321.634C336.835 321.313 337.912 321.308 339.001 321.621C340.095 321.938 341.142 322.571 342.144 323.522C343.121 324.448 343.798 325.451 344.177 326.53C344.555 327.61 344.623 328.689 344.383 329.768C344.138 330.852 343.574 331.86 342.69 332.791C342.096 333.418 341.442 333.905 340.727 334.254C340.013 334.61 339.265 334.801 338.482 334.826C337.695 334.854 336.891 334.695 336.07 334.347C335.253 334.002 334.44 333.447 333.632 332.681L332.909 331.995L340.516 323.975L342.149 325.523L336.893 331.063C337.272 331.423 337.687 331.659 338.136 331.772C338.585 331.885 339.031 331.873 339.473 331.737C339.916 331.609 340.319 331.353 340.683 330.969C341.062 330.57 341.306 330.127 341.413 329.642C341.521 329.165 341.503 328.693 341.358 328.227C341.217 327.764 340.961 327.353 340.59 326.993L339.038 325.521C338.568 325.075 338.08 324.776 337.573 324.625C337.063 324.478 336.563 324.477 336.072 324.622C335.582 324.768 335.127 325.061 334.709 325.502C334.431 325.795 334.218 326.102 334.07 326.424C333.922 326.745 333.848 327.071 333.849 327.4C333.849 327.73 333.926 328.053 334.079 328.371L331.607 330.654C331.139 329.976 330.869 329.237 330.795 328.439C330.722 327.649 330.85 326.838 331.177 326.006C331.505 325.181 332.04 324.377 332.783 323.594Z" fill="white"/>
<path d="M326.44 344.548L328.227 346.774L318.975 354.201L317.188 351.974L320.478 349.333L314.071 341.351L316.769 339.185L323.177 347.167L326.44 344.548Z" fill="white"/>
</svg>
